<svg xmlns="http://www.w3.org/2000/svg" width="57.9" height="57.9" viewBox="0 0 57.9 57.9"><defs><style>.a{fill:none;}.b{fill:#aa0601;}</style></defs><g transform="translate(-64 -64)"><path class="a" d="M193.754,145.465a6.033,6.033,0,0,0-2.556-.455,5.554,5.554,0,0,0-3.516,1.155,4.878,4.878,0,0,0-1.935,3.344,4.82,4.82,0,0,0-.007.938.234.234,0,0,0,.234.21h1.659a.234.234,0,0,0,.234-.234,5.133,5.133,0,0,1,.063-.8,2.812,2.812,0,0,1,1.122-1.745,3.408,3.408,0,0,1,2.174-.671,4.108,4.108,0,0,1,1.589.241,2.431,2.431,0,0,1,1.677,2.22c0,1.406-.852,2.049-2.358,3.061a4.807,4.807,0,0,0-2.408,4.16v.859a.234.234,0,0,0,.234.234h1.719a.234.234,0,0,0,.234-.234v-.859a2.594,2.594,0,0,1,1.441-2.344c1.559-1.048,3.325-2.234,3.325-4.877A4.6,4.6,0,0,0,193.754,145.465Z" transform="translate(-98.277 -64.313)"/><path class="b" d="M92.95,64A28.95,28.95,0,1,0,121.9,92.95,28.957,28.957,0,0,0,92.95,64Zm1.574,45.536H89.969a.387.387,0,0,1-.386-.387v-4.554a.387.387,0,0,1,.386-.388h4.555a.388.388,0,0,1,.386.388v4.554A.387.387,0,0,1,94.524,109.536Zm2.563-14.927c-2.444,1.641-2.78,3.144-2.78,4.523v1.659a.452.452,0,0,1-.452.452H90.538a.452.452,0,0,1-.452-.452V99.132c0-3.3,1.52-5.93,4.647-8.031,2.907-1.951,4.551-3.188,4.551-5.906,0-1.849-1.055-3.252-3.24-4.291a7.918,7.918,0,0,0-3.067-.466,6.58,6.58,0,0,0-4.2,1.3,5.4,5.4,0,0,0-2.162,3.376,9.908,9.908,0,0,0-.127,1.55.452.452,0,0,1-.452.452h-3.2a.452.452,0,0,1-.452-.406A9.3,9.3,0,0,1,82.4,84.9a9.436,9.436,0,0,1,3.735-6.453,10.751,10.751,0,0,1,6.785-2.229,11.818,11.818,0,0,1,4.934.878c3.65,1.736,5.656,4.614,5.656,8.1C103.5,90.3,100.1,92.587,97.087,94.609Z"/></g></svg>